<?xml version="1.0" standalone="no"?>
<!DOCTYPE svg PUBLIC "-//W3C//DTD SVG 20010904//EN"
 "http://www.w3.org/TR/2001/REC-SVG-20010904/DTD/svg10.dtd">
<svg version="1.0" xmlns="http://www.w3.org/2000/svg"
 width="512.000000pt" height="512.000000pt" viewBox="0 0 512.000000 512.000000"
 preserveAspectRatio="xMidYMid meet">
<metadata>
Created by potrace 1.14, written by Peter Selinger 2001-2017
</metadata>
<g transform="translate(0.000000,512.000000) scale(0.100000,-0.100000)"
fill="#000000" stroke="none">
<path d="M0 2560 l0 -2560 1168 1 c642 1 1156 3 1142 5 -14 2 -65 9 -115 15
-341 41 -713 173 -1000 354 -116 73 -244 167 -245 180 -1 6 -26 30 -56 55 -89
72 -293 288 -372 392 -39 52 -101 142 -137 199 -73 115 -193 352 -197 390 -4
37 76 61 223 67 139 5 205 -9 328 -69 109 -54 230 -170 282 -272 19 -37 39
-65 44 -63 137 62 221 81 311 72 63 -6 146 -31 202 -60 29 -15 36 -15 109 6
110 31 286 30 398 -1 108 -30 209 -81 287 -145 l64 -53 47 43 c62 56 133 96
232 130 73 26 92 28 225 28 133 0 152 -2 225 -27 166 -58 318 -180 399 -320
l39 -67 21 53 c89 218 332 364 573 343 l73 -6 6 28 c58 275 213 498 442 635
118 71 352 146 352 112 0 -25 -71 -268 -105 -361 -91 -246 -264 -543 -433
-744 -159 -189 -398 -403 -590 -528 -177 -115 -440 -234 -658 -297 -111 -32
-304 -71 -409 -83 -52 -6 331 -10 1083 -11 l1162 -1 0 2560 0 2560 -2560 0
-2560 0 0 -2560z m2873 1376 c29 -12 77 -47 149 -108 14 -13 49 -39 78 -58 28
-19 76 -54 105 -77 30 -24 58 -43 64 -43 5 0 18 -11 29 -25 11 -14 23 -25 27
-25 4 0 21 -11 39 -25 17 -14 44 -35 59 -47 98 -78 122 -114 132 -196 4 -33 0
-50 -14 -71 -20 -27 -20 -28 3 -52 35 -38 104 -177 127 -256 10 -35 16 -42 33
-38 143 29 162 28 245 -13 62 -31 121 -86 121 -114 0 -10 4 -18 9 -18 13 0 32
-53 32 -91 1 -58 -7 -95 -28 -137 -20 -40 -20 -41 0 -83 28 -61 18 -177 -18
-223 -62 -78 -134 -126 -188 -126 -14 0 -28 -4 -31 -9 -3 -5 -97 -26 -208 -47
-199 -37 -204 -39 -238 -74 -19 -20 -42 -45 -50 -55 -9 -11 -33 -33 -53 -50
-21 -16 -52 -42 -70 -57 -18 -15 -35 -28 -39 -28 -4 0 -13 -6 -20 -13 -7 -7
-53 -32 -103 -56 -49 -23 -97 -46 -105 -51 -9 -4 -30 -11 -48 -15 -18 -3 -32
-10 -32 -15 0 -9 7 -8 -254 -59 -204 -39 -213 -40 -380 -36 -193 4 -214 7
-306 42 -36 14 -79 30 -96 37 -18 6 -38 16 -45 22 -8 6 -35 21 -61 33 -27 13
-48 27 -48 32 0 5 -6 9 -13 9 -7 0 -22 8 -33 18 -10 9 -44 36 -75 60 -69 52
-106 87 -139 131 -14 19 -39 50 -55 70 -17 20 -40 55 -50 78 -11 24 -23 43
-26 43 -4 0 -10 11 -13 25 -4 14 -11 25 -16 25 -6 0 -10 5 -10 11 0 12 -31 81
-39 89 -4 3 -11 16 -18 30 -6 14 -32 68 -56 120 -25 52 -51 113 -57 135 -16
52 -28 83 -46 118 -8 16 -14 41 -14 57 0 16 -5 30 -10 32 -6 2 -16 32 -22 67
-11 56 -10 64 5 73 9 5 17 17 17 26 0 27 58 82 86 82 13 0 24 4 24 8 0 5 44
16 98 26 53 10 102 22 107 26 15 11 113 29 160 29 45 0 95 16 95 30 0 13 153
168 208 212 189 149 501 261 755 271 62 3 67 5 62 23 -12 45 -18 145 -8 145 6
0 14 11 17 25 9 37 107 133 142 138 56 8 75 7 107 -7z"/>
<path d="M2758 3826 c-61 -43 -80 -100 -58 -176 9 -32 19 -39 116 -85 58 -27
110 -56 117 -64 10 -12 9 -13 -8 -7 -54 21 -188 34 -295 30 -63 -3 -124 -5
-135 -5 -36 -2 -186 -30 -203 -38 -10 -5 -44 -17 -77 -26 -116 -33 -234 -92
-320 -160 -116 -92 -160 -133 -235 -221 -31 -36 -43 -42 -100 -53 -36 -7 -81
-13 -100 -13 -19 0 -50 -6 -70 -13 -19 -7 -64 -18 -100 -25 -175 -32 -214 -65
-191 -163 7 -29 16 -61 21 -72 4 -11 25 -65 45 -120 42 -112 74 -187 84 -195
3 -3 13 -21 22 -40 57 -124 114 -231 130 -246 11 -9 19 -23 19 -29 0 -33 169
-223 223 -251 15 -8 27 -18 27 -23 0 -5 19 -19 43 -31 23 -12 60 -33 82 -46
22 -13 47 -27 55 -30 8 -4 39 -17 68 -30 103 -47 183 -59 370 -56 141 2 201 8
326 32 85 15 173 38 197 49 23 12 50 21 59 21 9 0 35 9 58 20 22 11 46 20 51
20 13 0 70 32 141 79 75 49 92 63 185 157 l80 81 175 32 c96 17 193 38 215 46
22 7 56 17 75 20 59 12 97 36 138 87 23 29 26 111 6 154 -10 22 -24 43 -31 47
-19 12 -16 24 18 66 22 29 32 52 36 93 4 36 2 58 -6 62 -6 4 -11 15 -11 24 -1
29 -43 69 -103 97 l-58 27 -105 -19 -105 -20 -15 35 c-7 19 -14 40 -14 48 0 7
-4 16 -10 19 -5 3 -10 14 -10 22 0 22 -57 136 -93 188 -15 22 -39 57 -53 78
l-25 39 25 25 c29 28 34 73 13 111 -14 25 -125 118 -244 205 -44 31 -88 65
-99 75 -10 9 -39 30 -64 47 -25 16 -75 53 -112 83 -82 65 -118 74 -170 38z
m-24 -382 c12 -5 5 -14 -29 -36 -47 -31 -165 -154 -165 -171 0 -6 -9 -29 -20
-52 -38 -79 -23 -246 31 -341 51 -89 161 -174 245 -190 66 -11 68 -17 14 -57
-28 -21 -50 -43 -50 -49 0 -6 -6 -19 -14 -27 -8 -9 -31 -50 -52 -91 -30 -61
-37 -85 -37 -131 1 -67 16 -99 78 -161 103 -102 208 -127 393 -92 l112 21 -22
-26 c-13 -14 -27 -28 -31 -29 -5 -2 -18 -14 -31 -27 -13 -13 -62 -48 -109 -79
-82 -53 -177 -92 -297 -122 -30 -7 -82 -20 -115 -28 -72 -19 -200 -34 -350
-42 -121 -7 -184 2 -305 43 -74 26 -202 90 -208 105 -2 4 -9 8 -16 8 -41 0
-250 222 -301 320 l-15 29 47 -20 c143 -62 401 -60 540 2 24 10 45 19 48 19 2
0 28 15 57 34 109 70 198 218 206 344 4 69 -9 142 -30 166 -4 6 -8 18 -8 28 0
31 -129 153 -200 188 -67 33 -232 70 -317 70 l-43 0 58 61 c76 80 174 151 286
206 50 24 99 49 108 54 10 5 25 9 33 9 8 0 23 4 33 9 18 9 129 34 222 49 65
11 231 15 254 6z m256 -74 c34 -11 68 -20 74 -20 6 0 52 -20 102 -45 87 -44
170 -113 232 -195 24 -31 108 -205 117 -242 6 -24 4 -28 -13 -28 -11 0 -35 -6
-53 -14 -19 -7 -65 -19 -103 -25 -39 -7 -75 -15 -80 -19 -17 -11 -154 -42
-231 -53 -134 -18 -257 10 -337 76 -38 32 -101 140 -110 189 -8 41 9 151 29
189 9 18 45 62 81 99 65 67 110 91 197 101 17 2 31 5 31 6 1 0 30 -8 64 -19z
m-1081 -426 c247 -46 383 -206 331 -388 -26 -90 -117 -214 -174 -237 -17 -7
-42 -20 -56 -29 -38 -26 -192 -49 -297 -45 -97 3 -200 32 -239 67 -11 10 -25
18 -31 18 -16 0 -111 108 -128 145 -25 53 -77 189 -92 240 -8 28 -19 60 -24
73 -12 30 -11 69 1 77 12 7 97 25 380 79 103 19 227 19 329 0z"/>
<path d="M3161 3177 c-36 -45 -48 -147 -22 -195 6 -12 11 -29 11 -39 0 -39 97
-101 135 -87 8 3 21 28 31 56 18 55 13 133 -11 193 -28 66 -113 109 -144 72z"/>
</g>
</svg>
